# xmcd
#
# Track frame offsets:
#	150
#	30220
#	61720
#	87615
#	119565
#	143515
#	161925
#	193765
#	212930
#	220105
#	243053
#	265620
#	282353
#	303663
#
# Disc length: 4386 seconds
#
# Revision: 11
# Processed by: cddbd v1.5.2PL0 Copyright (c) Steve Scherf et al.
# Submitted via: Jack! The Knife 20 Magnifico
#
DISCID=ca11200e
DTITLE=Maná - MTV Unplugged
DYEAR=1999
DGENRE=Latin
TTITLE0=No Ha Parado De Llover
TTITLE1=En El Muelle De San Blas
TTITLE2=Vivir Sin Aire
TTITLE3=Cuando Los Angeles Lloran
TTITLE4=Cachito
TTITLE5=Te Solte La Rienda
TTITLE6=Desapariciones
TTITLE7=Falta Amor
TTITLE8=Coladito
TTITLE9=Ana
TTITLE10=Rayando El Sol
TTITLE11=Se Me Olvido Otra Vez
TTITLE12=Perdido En Un Barco
TTITLE13=Oye Mi Amor
EXTD=Fher Olvera and Alex Gonzales
EXTT0=
EXTT1=
EXTT2=
EXTT3=
EXTT4=
EXTT5=
EXTT6=
EXTT7=
EXTT8=
EXTT9=
EXTT10=
EXTT11=
EXTT12=
EXTT13=
PLAYORDER=
